<svg width="30" height="30" viewBox="0 0 30 30" fill="none" xmlns="http://www.w3.org/2000/svg">
<path d="M17.4902 16.0661C17.6232 15.7737 17.8635 15.5484 18.2675 15.3351C18.5357 15.1939 18.8568 15.1733 19.1521 15.154C19.8422 15.1376 20.4986 14.7297 20.8662 14.0886C21.2266 13.4611 21.2502 12.7266 20.9305 12.1241C20.7367 11.729 20.4686 11.4288 20.1418 11.237C19.8086 11.028 19.411 10.9111 19.0227 10.9232C18.846 10.8975 18.6794 10.8733 18.5157 10.8383C18.1939 10.7692 17.9136 10.5809 17.6333 10.2451C17.3858 9.9484 17.2493 9.5833 17.2164 9.12905C17.2335 8.56072 17.0269 8.02161 16.6343 7.60873C16.2367 7.19085 15.709 6.95767 15.134 6.96266C13.9849 6.96266 13.0496 7.90894 13.0496 9.07058C13.0474 9.63678 13.2684 10.1709 13.6724 10.5738C14.075 10.976 14.607 11.1935 15.1605 11.1806C15.1641 11.1806 15.1676 11.1806 15.1712 11.1806C16.1301 11.1806 16.9196 11.9394 16.9689 12.8992L16.9732 13.213C16.9203 14.0052 16.3103 14.8281 15.2384 14.8866C14.6528 14.8495 14.075 15.0799 13.6495 15.517C13.2205 15.9584 13.0038 16.5545 13.056 17.1471C13.1347 18.2431 14.0471 19.1017 15.1319 19.1017C15.1362 19.1017 15.1412 19.1017 15.1455 19.1017C15.7104 19.1017 16.2589 18.8593 16.6522 18.435C17.0397 18.0164 17.2443 17.458 17.2156 16.8968C17.2607 16.6166 17.3751 16.3306 17.4902 16.0661Z" fill="#07589B"/>
<path d="M20.3396 18.3451C18.2708 17.0644 16.0841 19.2451 17.3677 21.3081C17.4764 21.4828 17.6258 21.6318 17.801 21.7402C19.8698 23.0216 22.0572 20.8403 20.7729 18.7773C20.6642 18.6026 20.5148 18.4542 20.3396 18.3451Z" fill="#07589B"/>
<path d="M12.0297 9.56932C12.0684 9.40745 12.0884 9.24058 12.0884 9.07229C12.0884 7.90923 11.1538 6.96295 10.0039 6.96295C8.85405 6.96295 7.91943 7.90923 7.91943 9.07229C7.91943 9.23987 7.93946 9.40745 7.97807 9.56861C8.03099 9.79252 8.11966 10.0043 8.24194 10.1997C8.77754 11.5582 9.04927 13.02 9.04927 14.5467C9.04927 16.1106 8.76467 17.6052 8.20332 18.9908C8.1168 19.1405 8.04958 19.301 8.00167 19.4664C7.94732 19.6568 7.91943 19.8536 7.91943 20.0533C7.91943 21.2163 8.85405 22.1626 10.0039 22.1626C11.1538 22.1626 12.0884 21.2163 12.0884 20.0533C12.0884 19.8543 12.0605 19.6568 12.0069 19.4671C11.9597 19.301 11.8917 19.1412 11.8052 18.9915C11.2439 17.6066 10.9585 16.1113 10.9585 14.5475C10.9585 13.0214 11.2303 11.5589 11.7659 10.2004C11.8882 10.0043 11.9768 9.79252 12.0297 9.56932Z" fill="#07589B"/>
</svg>
