<?xml version="1.0" encoding="utf-8"?>
<!-- Generator: Adobe Illustrator 28.3.0, SVG Export Plug-In . SVG Version: 6.00 Build 0)  -->
<svg version="1.1" id="Слой_1" xmlns="http://www.w3.org/2000/svg" xmlns:xlink="http://www.w3.org/1999/xlink" x="0px" y="0px"
	 viewBox="0 0 419.53 420.7" style="enable-background:new 0 0 419.53 420.7;" xml:space="preserve">
<style type="text/css">
	.st0{fill:#07589B;}
</style>
<g>
	<path class="st0" d="M244.59,225.3c1.86-4.1,5.22-7.26,10.87-10.25c3.75-1.98,8.24-2.27,12.37-2.54
		c9.65-0.23,18.83-5.95,23.97-14.94c5.04-8.8,5.37-19.1,0.9-27.55c-2.71-5.54-6.46-9.75-11.03-12.44
		c-4.66-2.93-10.22-4.57-15.65-4.4c-2.47-0.36-4.8-0.7-7.09-1.19c-4.5-0.97-8.42-3.61-12.34-8.32c-3.46-4.16-5.37-9.28-5.83-15.65
		c0.24-7.97-2.65-15.53-8.14-21.32c-5.56-5.86-12.94-9.13-20.98-9.06c-16.07,0-29.15,13.27-29.15,29.56
		c-0.03,7.94,3.06,15.43,8.71,21.08c5.63,5.64,13.07,8.69,20.81,8.51c0.05,0,0.1,0,0.15,0c13.41,0,24.45,10.64,25.14,24.1l0.06,4.4
		c-0.74,11.11-9.27,22.65-24.26,23.47c-8.19-0.52-16.27,2.71-22.22,8.84c-6,6.19-9.03,14.55-8.3,22.86
		c1.1,15.37,13.86,27.41,29.03,27.41c0.06,0,0.13,0,0.19,0c7.9,0,15.57-3.4,21.07-9.35c5.42-5.87,8.28-13.7,7.88-21.57
		C241.38,233.02,242.98,229.01,244.59,225.3z"/>
	<path class="st0" d="M284.44,257.26c-28.93-17.96-59.51,12.62-41.56,41.55c1.52,2.45,3.61,4.54,6.06,6.06
		c28.93,17.97,59.52-12.62,41.56-41.55C288.98,260.87,286.89,258.79,284.44,257.26z"/>
	<path class="st0" d="M168.23,134.19c0.54-2.27,0.82-4.61,0.82-6.97c0-16.31-13.07-29.58-29.15-29.58s-29.15,13.27-29.15,29.58
		c0,2.35,0.28,4.7,0.82,6.96c0.74,3.14,1.98,6.11,3.69,8.85c7.49,19.05,11.29,39.55,11.29,60.96c0,21.93-3.98,42.89-11.83,62.32
		c-1.21,2.1-2.15,4.35-2.82,6.67c-0.76,2.67-1.15,5.43-1.15,8.23c0,16.31,13.07,29.58,29.15,29.58s29.15-13.27,29.15-29.58
		c0-2.79-0.39-5.56-1.14-8.22c-0.66-2.33-1.61-4.57-2.82-6.67c-7.85-19.42-11.84-40.39-11.84-62.32c0-21.4,3.8-41.91,11.29-60.96
		C166.25,140.29,167.49,137.32,168.23,134.19z"/>
</g>
</svg>
